<?xml version="1.0" standalone="no"?>
<!DOCTYPE svg PUBLIC "-//W3C//DTD SVG 20010904//EN"
 "http://www.w3.org/TR/2001/REC-SVG-20010904/DTD/svg10.dtd">
<svg version="1.0" xmlns="http://www.w3.org/2000/svg"
 width="352.000000pt" height="158.000000pt" viewBox="0 0 352.000000 158.000000"
 preserveAspectRatio="xMidYMid meet">

<g transform="translate(0.000000,158.000000) scale(0.100000,-0.100000)"
fill="#000000" stroke="none">
<path d="M1050 1258 c0 -2 -49 -124 -109 -273 -60 -148 -106 -274 -101 -278 4
-5 31 -7 61 -5 l53 3 74 188 c41 104 77 185 81 180 8 -8 57 -132 85 -210 l15
-43 -49 0 -50 0 0 -60 0 -60 136 0 c124 0 135 1 130 18 -3 9 -53 134 -110 277
l-104 260 -56 3 c-31 2 -56 2 -56 0z"/>
<path d="M1711 1242 c-16 -30 -211 -522 -211 -532 0 -6 26 -10 59 -10 l58 0
56 143 c31 78 64 163 74 190 9 26 20 47 23 47 8 0 104 -250 99 -255 -2 -2 -24
-5 -49 -7 l-45 -4 0 -54 0 -55 133 -3 c91 -2 132 1 132 8 0 12 -194 499 -211
532 -14 25 -104 26 -118 0z"/>
<path d="M2160 980 l0 -280 275 0 276 0 -3 58 c-2 36 -7 57 -15 58 -7 1 -105
2 -218 3 l-205 1 0 165 0 165 220 0 220 0 0 55 0 55 -275 0 -275 0 0 -280z"/>
<path d="M90 320 l0 -110 115 0 c108 0 115 1 115 20 0 18 -8 20 -92 22 l-93 3
0 65 0 65 93 3 c84 2 92 4 92 22 0 19 -7 20 -115 20 l-115 0 0 -110z"/>
<path d="M415 363 c36 -54 45 -76 45 -110 0 -36 3 -43 20 -43 17 0 20 7 20 40
0 30 10 56 38 98 20 31 41 63 45 70 6 8 0 12 -22 12 -23 0 -34 -8 -51 -35 -12
-19 -25 -35 -28 -35 -4 0 -18 16 -31 35 -18 26 -31 35 -52 35 l-29 0 45 -67z"/>
<path d="M830 410 c0 -17 7 -20 45 -20 l45 0 0 -90 c0 -89 0 -90 25 -90 25 0
25 1 25 90 l0 90 45 0 c38 0 45 3 45 20 0 19 -7 20 -115 20 -108 0 -115 -1
-115 -20z"/>
<path d="M1110 410 c0 -19 7 -20 113 -20 106 0 113 1 114 20 2 19 -4 20 -113
20 -107 0 -114 -1 -114 -20z"/>
<path d="M1380 320 l0 -110 115 0 c108 0 115 1 115 20 0 19 -7 20 -90 20 l-90
0 0 70 0 70 90 0 c83 0 90 1 90 20 0 19 -7 20 -115 20 l-115 0 0 -110z"/>
<path d="M1660 320 l0 -110 25 0 c23 0 25 4 25 45 l0 46 67 -3 68 -3 -3 -42
c-3 -40 -2 -43 22 -43 l26 0 0 110 0 110 -25 0 c-23 0 -25 -4 -25 -45 l0 -45
-65 0 -65 0 0 45 c0 41 -2 45 -25 45 l-25 0 0 -110z"/>
<path d="M2195 396 c-63 -151 -73 -181 -58 -184 28 -7 40 7 63 70 13 34 26 67
30 71 4 5 15 -13 24 -39 20 -60 20 -64 -4 -64 -13 0 -20 -7 -20 -20 0 -18 7
-20 55 -20 30 0 55 3 55 8 0 4 -18 53 -41 110 -36 90 -44 102 -66 102 -18 0
-28 -8 -38 -34z"/>
<path d="M2400 320 c0 -103 1 -110 20 -110 19 0 20 7 20 110 0 103 -1 110 -20
110 -19 0 -20 -7 -20 -110z"/>
<path d="M2670 320 l0 -110 115 0 c108 0 115 1 115 20 0 19 -7 20 -90 20 l-90
0 0 90 c0 89 0 90 -25 90 l-25 0 0 -110z"/>
<path d="M3031 408 c-5 -13 -25 -62 -44 -110 l-35 -88 26 0 c24 0 30 8 56 75
16 42 30 74 32 73 1 -2 12 -26 23 -55 l20 -52 -22 -3 c-12 -2 -23 -11 -25 -20
-3 -16 5 -18 56 -18 l60 0 -43 108 c-38 94 -46 107 -69 110 -20 3 -28 -2 -35
-20z"/>
<path d="M3230 320 l0 -110 115 0 115 0 0 43 c0 24 -5 48 -12 55 -9 9 -9 15 0
24 7 7 12 31 12 55 l0 43 -115 0 -115 0 0 -110z m180 45 c0 -26 -1 -26 -67
-23 -62 3 -68 5 -71 26 -3 21 0 22 67 22 69 0 71 -1 71 -25z m0 -90 c0 -24 -2
-25 -70 -25 -68 0 -70 1 -70 25 0 24 2 25 70 25 68 0 70 -1 70 -25z"/>
<path d="M1110 275 l0 -65 116 0 c102 0 115 2 110 16 -3 9 -6 18 -6 20 0 2
-40 4 -90 4 -89 0 -90 0 -90 25 0 25 0 25 96 25 86 0 95 2 92 18 -3 15 -18 17
-116 20 l-112 3 0 -66z"/>
</g>
</svg>
